<svg width="35" height="33" xmlns="http://www.w3.org/2000/svg" xmlns:xlink="http://www.w3.org/1999/xlink" overflow="hidden"><defs><clipPath id="clip0"><rect x="291" y="92" width="35" height="33"/></clipPath><clipPath id="clip1"><rect x="294" y="94" width="30" height="30"/></clipPath><clipPath id="clip2"><rect x="294" y="94" width="30" height="30"/></clipPath><clipPath id="clip3"><rect x="294" y="94" width="30" height="30"/></clipPath></defs><g clip-path="url(#clip0)" transform="translate(-291 -92)"><path d="M292 98.1668C292 95.3132 294.313 93 297.167 93L319.833 93C322.687 93 325 95.3132 325 98.1668L325 118.833C325 121.687 322.687 124 319.833 124L297.167 124C294.313 124 292 121.687 292 118.833Z" fill="#222A35" fill-rule="evenodd"/><g clip-path="url(#clip1)"><g clip-path="url(#clip2)"><g clip-path="url(#clip3)"><path d="M320.719 117.625 316.812 113.719C316.281 113.188 315.562 113 314.875 113.125L313.5 111.75C314.719 110.188 315.438 108.188 315.438 106.062 315.438 100.906 311.219 96.6875 306.062 96.6875 300.906 96.6875 296.688 100.906 296.688 106.062 296.688 111.219 300.906 115.438 306.062 115.438 308.188 115.438 310.156 114.719 311.75 113.5L313.125 114.875C313 115.562 313.188 116.281 313.719 116.812L317.625 120.719C318.062 121.156 318.625 121.375 319.188 121.375 319.75 121.375 320.312 121.156 320.75 120.719 321.562 119.844 321.562 118.469 320.719 117.625ZM306.031 113.531C301.906 113.531 298.531 110.156 298.531 106.031 298.531 101.906 301.906 98.5312 306.031 98.5312 310.156 98.5312 313.531 101.906 313.531 106.031 313.531 110.156 310.156 113.531 306.031 113.531Z" fill="#B7F3FF"/></g></g></g></g></svg>